<svg version="1.1" id="Layer_1" xmlns="http://www.w3.org/2000/svg" xmlns:xlink="http://www.w3.org/1999/xlink" x="0px" y="0px"
	 width="100%" viewBox="0 0 64 64" enable-background="new 0 0 64 64" xml:space="preserve">
<path fill="#D25B3A" opacity="1.000000" stroke="none" 
	d="
M45.000000,65.000000 
	C30.438126,65.000000 15.876253,65.000000 1.000000,65.000000 
	C1.000000,59.317001 1.000000,53.628212 1.468657,47.469769 
	C13.929883,46.999588 25.923132,47.074459 37.914726,46.966118 
	C43.745346,46.913437 48.099457,43.018654 47.993427,38.345055 
	C47.878906,33.297272 43.957710,30.022923 37.872513,30.008587 
	C25.581736,29.979630 13.290844,29.999985 1.000000,30.000000 
	C1.000000,29.555555 1.000000,29.111111 1.215066,28.675041 
	C10.259727,20.113642 19.089321,11.543868 27.918915,2.974095 
	C28.312641,3.248501 28.706367,3.522907 29.100094,3.797313 
	C29.100094,6.709884 29.100094,9.622455 29.100094,13.000025 
	C32.779449,13.000025 36.069504,13.029511 39.358875,12.994581 
	C49.884338,12.882812 57.567612,17.434896 62.434612,26.816936 
	C62.913383,27.739864 64.127304,28.281427 65.000000,29.000000 
	C65.000000,35.021152 65.000000,41.042305 64.754364,47.193909 
	C64.122520,47.629673 63.562202,47.853615 63.375870,48.252331 
	C59.754173,56.002060 54.360115,61.599186 45.582016,63.255585 
	C45.288731,63.310925 45.189621,64.395294 45.000000,65.000000 
z"/>
<path fill="#000000" opacity="1.000000" stroke="none" 
	d="
M65.000000,28.531342 
	C64.127304,28.281427 62.913383,27.739864 62.434612,26.816936 
	C57.567612,17.434896 49.884338,12.882812 39.358875,12.994581 
	C36.069504,13.029511 32.779449,13.000025 29.100094,13.000025 
	C29.100094,9.622455 29.100094,6.709884 29.100094,3.797313 
	C28.706367,3.522907 28.312641,3.248501 27.918915,2.974095 
	C19.089321,11.543868 10.259727,20.113642 1.215066,28.341707 
	C1.000000,19.033215 1.000000,10.066427 1.000000,1.049821 
	C22.221296,1.049821 43.442730,1.049821 65.000000,1.049821 
	C65.000000,10.018116 65.000000,19.040400 65.000000,28.531342 
z"/>
<path fill="#000000" opacity="1.000000" stroke="none" 
	d="
M1.000000,30.467606 
	C13.290844,29.999985 25.581736,29.979630 37.872513,30.008587 
	C43.957710,30.022923 47.878906,33.297272 47.993427,38.345055 
	C48.099457,43.018654 43.745346,46.913437 37.914726,46.966118 
	C25.923132,47.074459 13.929883,46.999588 1.468657,47.000061 
	C1.000000,41.645073 1.000000,36.290142 1.000000,30.467606 
z"/>
<path fill="#000000" opacity="1.000000" stroke="none" 
	d="
M45.469040,65.000000 
	C45.189621,64.395294 45.288731,63.310925 45.582016,63.255585 
	C54.360115,61.599186 59.754173,56.002060 63.375870,48.252331 
	C63.562202,47.853615 64.122520,47.629673 64.754364,47.662182 
	C65.000000,53.598652 65.000000,59.197308 65.000000,65.000000 
	C58.647064,65.000000 52.292576,65.000000 45.469040,65.000000 
z"/>
</svg>